<?xml version="1.0" standalone="no"?>
<!DOCTYPE svg PUBLIC "-//W3C//DTD SVG 20010904//EN"
 "http://www.w3.org/TR/2001/REC-SVG-20010904/DTD/svg10.dtd">
<svg version="1.0" xmlns="http://www.w3.org/2000/svg"
 width="565.000000pt" height="565.000000pt" viewBox="0 0 565.000000 565.000000"
 preserveAspectRatio="xMidYMid meet">
<metadata>
Created by potrace 1.11, written by Peter Selinger 2001-2013
</metadata>
<g transform="translate(0.000000,565.000000) scale(0.100000,-0.100000)"
fill="#000000" stroke="none">
<path d="M2198 5045 c-1 -1 -37 -5 -78 -9 -172 -15 -211 -28 -266 -90 -40 -46
-103 -158 -118 -211 -22 -78 -26 -177 -10 -252 24 -115 78 -188 165 -227 l34
-14 -34 -1 c-22 -1 -68 16 -125 44 -93 46 -170 67 -215 58 -33 -6 -31 -3 -35
-56 -3 -26 -9 -70 -15 -99 -20 -103 -22 -114 -22 -168 1 -95 30 -177 65 -186
30 -7 58 -12 76 -13 30 -2 43 -17 31 -38 -15 -29 -58 -182 -66 -234 -4 -24 -8
-46 -10 -49 -22 -36 -22 -385 0 -520 2 -14 7 -63 10 -110 4 -47 8 -107 11
-135 2 -27 6 -81 9 -120 3 -38 7 -92 10 -120 7 -78 15 -174 20 -240 3 -33 7
-82 10 -110 2 -27 7 -86 10 -130 3 -44 8 -102 10 -130 2 -27 7 -81 10 -120 3
-38 8 -90 10 -115 2 -25 7 -76 10 -115 3 -38 8 -95 10 -125 3 -30 7 -84 10
-120 11 -136 44 -314 76 -407 48 -139 135 -246 242 -296 84 -39 197 -75 262
-82 33 -4 69 -9 80 -11 116 -22 526 -22 720 0 17 2 62 7 100 11 39 4 77 8 85
10 8 1 40 6 70 9 107 13 121 15 198 37 209 57 305 146 376 344 26 76 61 226
71 315 3 30 8 66 10 80 5 34 14 132 30 340 3 30 7 80 9 110 3 30 8 91 11 135
3 44 8 96 10 115 3 19 7 69 10 110 3 41 7 98 9 125 3 28 7 86 11 130 3 44 8
103 10 130 2 28 7 84 11 125 3 41 8 93 10 115 2 22 6 78 9 125 3 47 7 101 10
120 8 77 18 229 19 295 3 189 -49 413 -134 577 -20 38 -26 59 -19 64 19 11
121 6 185 -9 52 -12 89 -14 152 -8 24 2 52 41 52 73 0 25 -11 42 -52 83 -90
86 -199 134 -393 170 -123 23 -118 20 -89 52 74 78 97 253 59 439 -26 126 -60
191 -115 219 -30 16 -150 41 -235 49 -33 3 -71 8 -85 11 -13 3 -58 7 -100 11
-41 3 -91 7 -110 9 -19 2 -84 6 -145 10 -60 3 -132 8 -160 10 -58 6 -772 15
-777 10z m652 -39 c96 -4 198 -9 225 -11 28 -2 88 -6 135 -10 117 -8 236 -19
362 -36 155 -20 171 -23 219 -45 72 -32 113 -163 113 -359 0 -112 -3 -137 -21
-177 -35 -78 -56 -93 -148 -108 -27 -5 -97 -20 -155 -33 -58 -14 -134 -28
-170 -32 -36 -4 -78 -8 -95 -10 -196 -24 -670 -24 -804 0 -9 1 -43 6 -76 9
-56 7 -73 9 -142 20 -16 3 -46 7 -68 10 -22 3 -71 10 -110 16 -86 12 -97 12
-65 -2 34 -14 209 -66 240 -71 14 -3 43 -10 65 -15 38 -10 80 -18 150 -27 17
-2 64 -9 105 -16 190 -28 531 -16 685 26 33 9 67 18 75 20 8 2 51 12 95 23 44
11 105 24 135 27 30 4 77 11 105 15 71 11 306 -32 453 -84 58 -21 146 -81 182
-124 17 -20 30 -39 30 -42 -1 -38 -81 -49 -180 -25 -108 26 -184 17 -282 -34
-65 -33 -78 -37 -79 -23 0 9 -2 26 -5 37 -2 11 -4 71 -5 133 l-1 114 -44 -65
c-56 -84 -175 -203 -256 -256 -149 -98 -255 -90 -283 21 -10 37 -42 68 -71 68
-37 0 -74 -29 -196 -151 -109 -111 -154 -142 -191 -137 -31 4 -58 58 -63 125
-6 91 -23 147 -54 185 -40 49 -89 61 -211 53 l-99 -6 -10 25 c-9 24 -14 26
-75 26 l-66 0 -31 -67 c-75 -166 -80 -175 -112 -188 -73 -31 -157 -23 -343 29
-51 14 -107 28 -125 30 -67 7 -89 114 -57 282 10 54 18 114 19 133 l0 33 49
-4 c33 -3 82 -21 146 -53 130 -65 175 -66 243 -7 31 27 28 32 -17 32 -71 0
-145 49 -181 120 -37 71 -47 216 -21 309 31 109 116 242 168 262 38 14 143 29
260 35 59 3 109 7 110 8 4 4 380 -2 543 -8z m952 -2075 c49 -34 93 -105 113
-182 17 -63 17 -144 0 -349 -2 -30 -6 -102 -10 -159 -3 -57 -7 -132 -10 -165
-2 -34 -7 -99 -10 -146 -13 -215 -16 -259 -20 -315 -3 -33 -7 -107 -11 -165
-7 -122 -15 -168 -44 -232 -23 -52 -101 -128 -134 -129 -12 0 -30 -2 -41 -4
-22 -5 -109 -17 -140 -20 -11 -1 -45 -5 -75 -9 -147 -19 -334 -30 -525 -29
-153 0 -363 10 -395 18 -8 2 -44 7 -80 10 -36 4 -74 9 -85 11 -11 3 -42 7 -70
10 -27 3 -53 8 -56 10 -4 2 -24 6 -45 10 -151 22 -220 54 -267 122 -49 70 -63
130 -72 312 -3 69 -8 141 -10 160 -2 19 -7 85 -10 145 -4 61 -8 126 -10 145
-2 19 -6 87 -10 150 -4 63 -8 133 -11 155 -6 61 -15 219 -19 326 -2 79 1 109
19 162 25 73 64 129 110 159 33 21 26 21 331 0 128 -8 657 -7 890 1 243 10
430 18 432 20 1 1 53 2 115 2 105 0 117 -2 150 -24z"/>
<path d="M3110 2580 c-50 -33 -126 -64 -198 -81 -66 -15 -85 -17 -197 -23
-194 -11 -278 -30 -364 -86 -292 -187 -247 -655 84 -875 139 -92 279 -138 420
-138 310 0 522 196 511 472 -4 92 -18 135 -107 316 -84 174 -112 270 -107 371
2 41 3 74 3 74 0 0 -20 -14 -45 -30z m-590 -204 c0 -2 -20 -16 -44 -30 -82
-48 -146 -156 -146 -245 0 -21 -2 -40 -4 -42 -3 -3 -23 -3 -45 -1 -38 4 -39 5
-36 38 8 87 101 201 208 254 62 31 67 33 67 26z m-140 -495 c144 -47 414 -203
522 -303 48 -43 108 -115 108 -128 0 -13 -115 -28 -189 -24 -190 10 -422 145
-525 307 -34 53 -76 146 -76 168 0 14 90 2 160 -20z"/>
</g>
</svg>
