<!-- Generator: Adobe Illustrator 19.1.0, SVG Export Plug-In  -->
<svg version="1.1"
	 xmlns="http://www.w3.org/2000/svg" xmlns:xlink="http://www.w3.org/1999/xlink" xmlns:a="http://ns.adobe.com/AdobeSVGViewerExtensions/3.0/"
	 x="0px" y="0px" width="409.4px" height="105.1px" viewBox="0 0 409.4 105.1" enable-background="new 0 0 409.4 105.1"
	 xml:space="preserve">
<defs>
</defs>
<g>
	<g>
		<path d="M114.7,33.9c0,0.4-0.5,0.5-1.5,0.5c-1.8,0-2.9,0.1-3.3,0.2c-0.4,0.1-0.7,0.3-0.7,0.6c-0.1,0.3-0.1,1.2-0.1,2.7v22.4v6.5
			c0,3.2,0,5.8,0,7.9c-0.1,2.9-0.3,5-0.6,6.5c-0.6,2.4-1.9,4.5-4.1,6.2c-2.2,1.7-4.5,2.6-6.9,2.6c-1.8,0-3.3-0.5-4.4-1.4
			c-1.1-1-1.7-2.2-1.7-3.7c0-2.6,1.3-4,3.9-4c1.1,0,2,0.3,2.7,1c0.7,0.6,1.1,1.5,1.1,2.5c0,0.9-0.3,1.7-0.9,2.4
			c-0.4,0.5-0.6,0.9-0.6,1.2c0,0.4,0.3,0.6,1,0.6c1.5,0,2.5-0.9,3.1-2.7c0.3-1,0.5-3.8,0.5-8.6V37.5c0-1.5-0.4-2.4-1.3-2.8
			c-0.4-0.1-1.5-0.2-3.3-0.2c-0.8,0-1.4,0-1.6-0.1c-0.2-0.1-0.3-0.2-0.3-0.4c0-0.5,0.4-0.7,1.1-0.7c0.1,0,0.8,0,1.9,0
			c1.4,0,2.6,0,3.5,0h10.2C114,33.2,114.7,33.5,114.7,33.9z"/>
		<path d="M130.9,81.2c0,0.3-0.2,0.4-0.6,0.4h-0.7h-1.5h-1.8c-0.4,0-0.8,0-1.2,0c-0.4,0-0.6,0-0.8,0c-0.5,0-1.3,0-2.6,0
			c-1.3,0-2.2,0-2.9,0h-0.3c-0.8,0-1.2-0.1-1.2-0.4c0-0.3,0.5-0.5,1.5-0.5c1.4-0.1,2.1-0.3,2.2-0.5c0.1-0.2,0.1-1.2,0.1-3V54.6
			c0-1.8,0-2.9-0.1-3.2c-0.1-0.3-0.4-0.5-1-0.5h-1.4H118c-0.4,0-0.6-0.2-0.6-0.5c0-0.3,0.3-0.5,0.9-0.5c0,0,0.1,0,0.4,0
			c0.3,0,0.8,0,1.5,0h5c0.3,0,0.7,0,1.3,0c0.6,0,1.1,0,1.5,0h1.7c0.7,0,1.1,0.2,1.1,0.6c0,0.3-0.8,0.4-2.4,0.5c-0.7,0-1,0.1-1.2,0.3
			c-0.1,0.2-0.2,0.8-0.2,1.9v26.2c0,0.5,0.2,0.8,0.5,0.9c0.3,0.1,1.2,0.3,2.5,0.3C130.6,80.7,130.9,80.9,130.9,81.2z"/>
		<path d="M170.2,81.1c0,0.4-0.4,0.6-1.3,0.6c0.2,0,0,0-0.7,0c-0.6,0-1.7,0-3.1,0h-2.4c-0.7,0-1.6,0-2.7,0c-1.1,0-2.1,0-3.1,0h-0.3
			c-0.8,0-1.3-0.2-1.3-0.5c0-0.2,0.1-0.3,0.3-0.4c0.2,0,1-0.1,2.3-0.1c1,0,1.5-0.2,1.7-0.4c0.2-0.2,0.2-1.1,0.2-2.6V55.2
			c-0.8,2.3-2.2,6.1-4,11.5c-1.1,3.2-2.4,7.3-4,12.4c-0.5,1.4-0.8,2.2-1.1,2.2c-0.4,0-0.8-0.6-1.2-1.9c-1.1-3.2-4.2-11.1-9.4-23.8
			v23.9c0,0.6,0.2,1,0.7,1.1c0.6,0,1.5,0.1,2.5,0.1c0.6,0,0.9,0.2,0.9,0.5c0,0.4-0.5,0.6-1.4,0.6h-1c-0.4,0-0.9,0-1.5,0h-4
			c-0.4,0-0.9,0-1.5,0c-0.7,0-1-0.2-1-0.6c0-0.3,0.7-0.5,2.2-0.6c1,0,1.6-0.2,1.8-0.4c0.2-0.2,0.2-1,0.2-2.3V54.3
			c0-1.6-0.2-2.5-0.5-2.8c-0.3-0.3-1.3-0.4-3-0.5c-0.6,0-0.9-0.2-0.9-0.6c0-0.3,0.4-0.4,1.2-0.5c0.8,0,3.6-0.1,8.3-0.1l0.3,0.8
			c0.2,0.5,0.5,1.2,0.9,2.2l1.7,4.2c0.5,1.2,1.3,3.1,2.4,5.8l3.7,9.1c0.7-2.2,1.2-3.9,1.6-4.9l6-17.1h5.3h3.1c1.2,0,1.8,0.2,1.8,0.6
			c0,0.4-0.4,0.5-1.3,0.6c-1.2,0-1.9,0.1-2.2,0.1c-0.6,0.2-1,0.7-1,1.5v24.6c0,1.9,0.2,2.9,0.5,3c0.3,0.1,1.4,0.2,3.2,0.2
			C169.8,80.6,170.2,80.7,170.2,81.1z"/>
		<path d="M208.5,81.1c0,0.4-0.4,0.6-1.3,0.6c0.2,0,0,0-0.7,0c-0.7,0-1.7,0-3.1,0H201c-0.7,0-1.6,0-2.7,0c-1.1,0-2.1,0-3.1,0h-0.3
			c-0.8,0-1.3-0.2-1.3-0.5c0-0.2,0.1-0.3,0.3-0.4c0.2,0,1-0.1,2.3-0.1c1,0,1.5-0.2,1.7-0.4c0.2-0.2,0.2-1.1,0.2-2.6V55.2
			c-0.8,2.3-2.2,6.1-4,11.5c-1.1,3.2-2.4,7.3-4,12.4c-0.5,1.4-0.8,2.2-1.1,2.2c-0.4,0-0.8-0.6-1.2-1.9c-1.1-3.2-4.2-11.1-9.4-23.8
			v23.9c0,0.6,0.2,1,0.7,1.1c0.6,0,1.5,0.1,2.5,0.1c0.6,0,0.9,0.2,0.9,0.5c0,0.4-0.5,0.6-1.4,0.6h-1c-0.4,0-0.9,0-1.5,0h-4
			c-0.4,0-0.9,0-1.5,0c-0.7,0-1-0.2-1-0.6c0-0.3,0.7-0.5,2.2-0.6c1,0,1.6-0.2,1.8-0.4s0.2-1,0.2-2.3V54.3c0-1.6-0.2-2.5-0.5-2.8
			c-0.3-0.3-1.3-0.4-3-0.5c-0.6,0-0.9-0.2-0.9-0.6c0-0.3,0.4-0.4,1.2-0.5c0.8,0,3.6-0.1,8.3-0.1l0.3,0.8c0.2,0.5,0.5,1.2,0.9,2.2
			l1.7,4.2c0.5,1.2,1.2,3.1,2.4,5.8l3.7,9.1c0.7-2.2,1.2-3.9,1.6-4.9l6-17.1h5.3h3.1c1.2,0,1.8,0.2,1.8,0.6c0,0.4-0.4,0.5-1.3,0.6
			c-1.2,0-1.9,0.1-2.2,0.1c-0.7,0.2-1,0.7-1,1.5v24.6c0,1.9,0.2,2.9,0.5,3c0.3,0.1,1.4,0.2,3.2,0.2
			C208.2,80.6,208.5,80.7,208.5,81.1z"/>
		<path d="M240.2,50.4c0,0.3-0.3,0.4-0.9,0.5c-1.6,0.1-2.7,0.4-3.1,0.8c-0.4,0.4-1.5,2.2-3.1,5.4c-1.4,2.9-2.9,5.6-4.3,8.1
			c-0.6,1-1,1.7-1,2.2c-0.1,0.4-0.1,1.3-0.1,2.6v8.6c0,0.9,0.1,1.5,0.4,1.6c0.3,0.2,1.2,0.3,2.9,0.4c0.8,0,1.3,0.2,1.3,0.6
			c0,0.3-0.3,0.5-1,0.5h-0.4h-1.5h-1.8c-0.4,0-1,0-2,0c-1,0-1.7,0-2,0c0,0-0.3,0-1.1,0c-0.8,0-1.9,0-3.4,0h-0.7
			c-0.6,0-0.9-0.2-0.9-0.5c0-0.4,0.7-0.6,2.1-0.6c1.4,0,2.2-0.2,2.4-0.4c0.2-0.2,0.3-1,0.3-2.4v-9.3c-0.3-0.6-0.7-1.4-1.3-2.4
			l-4.8-8.5c-0.7-1.3-1.3-2.3-1.7-3.1c-0.4-0.8-0.9-1.7-1.5-2.6c-0.4-0.5-1.6-0.7-3.5-0.8c-0.6,0-0.9-0.2-0.9-0.5
			c0-0.4,0.3-0.6,0.9-0.6c0,0,0.4,0,1.3,0s1.9,0,2.9,0h2.2h6.2c0.2,0,0.5,0,0.8,0c0.7,0,1,0.2,1,0.6c0,0.3-0.6,0.5-1.8,0.5
			c-1.9,0-2.8,0.3-2.8,0.9c0,0.7,2.5,5.3,7.4,13.6c4.7-8.8,7.1-13.4,7.1-13.9c0-0.4-0.4-0.6-1.2-0.6h-1.3h-0.6
			c-0.8,0-1.2-0.2-1.2-0.6c0-0.3,0.4-0.5,1.2-0.5h2.7h1.7C238.5,49.7,240.2,49.9,240.2,50.4z"/>
		<path d="M254.1,39.1c0,3.4-1.3,5.8-4,7.4c-1.9,1.1-3.4,1.6-4.7,1.6c-0.5,0-0.8-0.2-0.8-0.6c0-0.3,0.3-0.6,0.8-0.7
			c2.1-0.6,3.6-1.3,4.5-2.2s1.3-2,1.3-3.6c0-1.3-0.3-2.3-0.9-3.2c0,1.6-1,2.4-3,2.4c-1,0-1.9-0.3-2.5-1c-0.7-0.7-1-1.5-1-2.5
			c0-1.2,0.4-2.1,1.3-3c0.9-0.8,1.9-1.2,3.2-1.2c1.7,0,3.1,0.6,4.2,1.8C253.5,35.6,254.1,37.2,254.1,39.1z"/>
		<path d="M281.6,72.7c0,2.6-1.1,4.8-3.3,6.7c-2.2,1.8-4.9,2.8-8.1,2.8c-2.4,0-4.8-0.7-7.3-2.2c-0.3-0.1-0.5-0.1-0.6-0.1
			c-0.3,0-0.4,0.2-0.5,0.7c0,0.4-0.1,0.8-0.2,1.1c-0.1,0.3-0.3,0.5-0.7,0.5c-0.5,0-0.7-0.2-0.7-0.7c0-0.1,0-0.8,0.1-2.1
			c0.1-1.3,0.1-2.4,0.1-3.3c0-0.4,0-1,0-1.8s0-1.4,0-1.8c0-0.9,0.2-1.3,0.7-1.3c0.5,0,0.8,0.7,1,2.2c0.9,5.1,3.6,7.7,8.2,7.7
			c3.9,0,5.8-1.9,5.8-5.8c0-1.7-0.5-3.1-1.4-4.2c-0.9-1.1-2.7-2.3-5.4-3.6c-3.5-1.8-5.8-3.1-6.7-4.2c-1.3-1.3-1.9-3-1.9-5
			c0-2.5,0.9-4.6,2.8-6.3c1.9-1.6,4.2-2.5,7-2.5c1.8,0,3.6,0.5,5.6,1.6c0.2,0.1,0.4,0.2,0.6,0.2c0.3,0,0.5-0.3,0.6-1
			c0.1-0.7,0.4-1,0.8-1c0.5,0,0.7,0.2,0.7,0.7c0,0.1,0,0.3-0.1,0.6c-0.1,0.7-0.1,1.7-0.1,2.9c0,0.7,0.1,1.9,0.2,3.8
			c0,0.2,0.1,0.4,0.1,0.6c0,0.6-0.2,0.8-0.6,0.8c-0.4,0-0.7-0.4-0.9-1.2c-0.4-2-1.3-3.6-2.5-4.9c-1.3-1.2-2.8-1.8-4.5-1.8
			c-3.3,0-5,1.8-5,5.3c0,1.6,0.4,2.9,1.3,3.9c0.5,0.6,1,1,1.5,1.3c0.6,0.3,2.2,1.1,4.9,2.4c3,1.5,5.1,2.9,6.4,4.3
			C280.9,69.2,281.6,70.8,281.6,72.7z"/>
	</g>
	<g>
		<path d="M315.8,33.9c0,0.4-0.5,0.5-1.5,0.5c-1.8,0-2.9,0.1-3.3,0.2c-0.4,0.1-0.7,0.3-0.7,0.6c-0.1,0.3-0.1,1.2-0.1,2.7v22.4v6.5
			c0,3.2,0,5.8,0,7.9c-0.1,2.9-0.3,5-0.6,6.5c-0.6,2.4-1.9,4.5-4.1,6.2c-2.2,1.7-4.5,2.6-6.9,2.6c-1.8,0-3.3-0.5-4.4-1.4
			c-1.1-1-1.7-2.2-1.7-3.7c0-2.6,1.3-4,3.9-4c1.1,0,2,0.3,2.7,1c0.7,0.6,1.1,1.5,1.1,2.5c0,0.9-0.3,1.7-0.9,2.4
			c-0.4,0.5-0.6,0.9-0.6,1.2c0,0.4,0.3,0.6,1,0.6c1.5,0,2.5-0.9,3.1-2.7c0.3-1,0.5-3.8,0.5-8.6V37.5c0-1.5-0.4-2.4-1.3-2.8
			c-0.4-0.1-1.5-0.2-3.3-0.2c-0.8,0-1.4,0-1.6-0.1c-0.2-0.1-0.3-0.2-0.3-0.4c0-0.5,0.4-0.7,1.1-0.7c0.1,0,0.8,0,1.9,0
			c1.4,0,2.6,0,3.5,0h10.2C315.1,33.2,315.8,33.5,315.8,33.9z"/>
		<path d="M349.5,81.2c0,0.3-0.5,0.4-1.4,0.4h-0.5h-4.3h-1.9c-0.8,0-1.9,0-3.3,0H336h-1.3h-0.3c-0.8,0-1.3-0.2-1.3-0.6
			c0-0.4,0.8-0.6,2.5-0.6c2,0,3-0.3,3-0.7c0-0.1-0.1-0.5-0.4-1.3c-0.1-0.4-0.6-1.9-1.6-4.6l-0.8-2.3h-9.9c-1.9,4.8-2.9,7.5-2.9,8.3
			c0,0.4,0.3,0.7,0.8,0.7l0.9,0.1h1l0.6,0.2c0.6,0,0.8,0.1,0.8,0.4c0,0.3-0.5,0.5-1.5,0.5c-0.1,0-1,0-2.5-0.1
			c-1.5-0.1-2.8-0.1-4-0.1h-0.6l-0.6,0.1l-0.8,0.1h-0.1c-0.7,0-1.1-0.1-1.1-0.4c0-0.3,0.3-0.5,0.9-0.6c0.8,0,1.4-0.1,1.7-0.1
			c0.8-0.1,1.3-0.3,1.5-0.6c0.3-0.1,1.4-2.8,3.4-8c0.8-2.1,1.6-4,2.3-5.9c0.3-0.7,0.5-1.1,0.6-1.5c0.1-0.3,0.3-0.8,0.6-1.5
			c0.8-1.9,1.9-4.8,3.3-8.6l1-2.9l0.5-1.3c0.3-0.7,0.6-1,0.8-1c0.1,0,0.4,0.7,0.9,1.9c1.4,3.4,5,12.3,10.8,26.9
			c0.6,1.4,1.1,2.2,1.6,2.3c0.1,0,0.9,0.1,2.2,0.2C349.1,80.7,349.5,80.9,349.5,81.2z M335.4,70.3l-4.5-11.9
			c-1.1,2.8-2.7,6.7-4.7,11.9H335.4z"/>
		<path d="M385,81.1c0,0.4-0.4,0.6-1.3,0.6c0.2,0,0,0-0.7,0c-0.7,0-1.7,0-3.1,0h-2.4c-0.7,0-1.6,0-2.7,0c-1.1,0-2.1,0-3.1,0h-0.3
			c-0.8,0-1.3-0.2-1.3-0.5c0-0.2,0.1-0.3,0.3-0.4c0.2,0,1-0.1,2.3-0.1c1,0,1.5-0.2,1.7-0.4c0.2-0.2,0.2-1.1,0.2-2.6V55.2
			c-0.8,2.3-2.2,6.1-4,11.5c-1.1,3.2-2.4,7.3-4,12.4c-0.5,1.4-0.8,2.2-1.1,2.2c-0.4,0-0.8-0.6-1.2-1.9c-1.1-3.2-4.2-11.1-9.4-23.8
			v23.9c0,0.6,0.2,1,0.7,1.1c0.6,0,1.5,0.1,2.5,0.1c0.6,0,0.9,0.2,0.9,0.5c0,0.4-0.5,0.6-1.4,0.6h-1c-0.4,0-0.9,0-1.5,0h-4
			c-0.4,0-0.9,0-1.5,0c-0.7,0-1-0.2-1-0.6c0-0.3,0.7-0.5,2.2-0.6c1,0,1.6-0.2,1.8-0.4c0.2-0.2,0.2-1,0.2-2.3V54.3
			c0-1.6-0.2-2.5-0.5-2.8c-0.3-0.3-1.3-0.4-3-0.5c-0.6,0-0.9-0.2-0.9-0.6c0-0.3,0.4-0.4,1.2-0.5c0.8,0,3.6-0.1,8.3-0.1l0.3,0.8
			c0.2,0.5,0.5,1.2,0.9,2.2L361,57c0.5,1.2,1.2,3.1,2.4,5.8L367,72c0.7-2.2,1.2-3.9,1.6-4.9l6-17.1h5.3h3.1c1.2,0,1.8,0.2,1.8,0.6
			c0,0.4-0.4,0.5-1.3,0.6c-1.2,0-1.9,0.1-2.2,0.1c-0.7,0.2-1,0.7-1,1.5v24.6c0,1.9,0.2,2.9,0.5,3c0.3,0.1,1.4,0.2,3.2,0.2
			C384.7,80.6,385,80.7,385,81.1z"/>
		<path d="M409.4,72.7c0,2.6-1.1,4.8-3.3,6.7c-2.2,1.8-4.9,2.8-8.1,2.8c-2.4,0-4.8-0.7-7.3-2.2c-0.3-0.1-0.5-0.1-0.6-0.1
			c-0.3,0-0.4,0.2-0.5,0.7c0,0.4-0.1,0.8-0.2,1.1c-0.1,0.3-0.3,0.5-0.7,0.5c-0.5,0-0.7-0.2-0.7-0.7c0-0.1,0-0.8,0.1-2.1
			c0.1-1.3,0.1-2.4,0.1-3.3c0-0.4,0-1,0-1.8c0-0.8,0-1.4,0-1.8c0-0.9,0.2-1.3,0.7-1.3s0.8,0.7,1,2.2c0.9,5.1,3.6,7.7,8.2,7.7
			c3.9,0,5.8-1.9,5.8-5.8c0-1.7-0.5-3.1-1.4-4.2c-0.9-1.1-2.7-2.3-5.4-3.6c-3.5-1.8-5.8-3.1-6.7-4.2c-1.3-1.3-1.9-3-1.9-5
			c0-2.5,0.9-4.6,2.8-6.3c1.9-1.6,4.2-2.5,7-2.5c1.8,0,3.6,0.5,5.6,1.6c0.2,0.1,0.4,0.2,0.6,0.2c0.3,0,0.5-0.3,0.6-1
			c0.1-0.7,0.4-1,0.8-1c0.5,0,0.7,0.2,0.7,0.7c0,0.1,0,0.3-0.1,0.6c-0.1,0.7-0.1,1.7-0.1,2.9c0,0.7,0.1,1.9,0.2,3.8
			c0,0.2,0.1,0.4,0.1,0.6c0,0.6-0.2,0.8-0.6,0.8c-0.4,0-0.7-0.4-0.9-1.2c-0.4-2-1.3-3.6-2.5-4.9c-1.3-1.2-2.8-1.8-4.5-1.8
			c-3.3,0-5,1.8-5,5.3c0,1.6,0.4,2.9,1.3,3.9c0.5,0.6,1,1,1.5,1.3c0.6,0.3,2.2,1.1,4.9,2.4c3,1.5,5.1,2.9,6.4,4.3
			C408.8,69.2,409.4,70.8,409.4,72.7z"/>
	</g>
</g>
<path fill="#010101" d="M66.4,25c-0.2,0.6-1.5,0.9-3.1,0.7C62.1,25.2,61,25,59.9,25c-2.3,0-3.8,1-4.8,1.6c-0.4,0.2-0.7,0.5-0.9,0.5
	c-0.4-0.3-0.4-3.3-0.4-5.6l0-1.4l-0.7,1.2c-1.6,2.8-6.9,7.9-10.2,7.9c-1.3,0-2.1-0.7-2.6-2.3c-0.3-1-0.8-1.5-1.5-1.5
	c-1.2,0-2.6,1.5-4.3,3.3c-1.6,1.7-3.3,3.5-4.5,3.5c-0.8,0-1.3-0.9-1.7-2.6c0-2.3-0.4-3.9-1.4-4.9c-0.7-0.7-1.7-1.1-3.1-1.1
	c-0.6,0-1.3,0.1-1.9,0.1c-0.5,0.1-1,0.1-1.3,0.1c-0.9,0-1-0.3-1-0.8v-0.4h-3l-0.1,0.1c-0.6,0.7-0.9,1.7-1.3,2.7
	c-0.5,1.3-1,2.6-1.9,3c-0.7,0.3-1.5,0.5-2.4,0.5c-1.6,0-3.3-0.5-5-1c-1.4-0.4-2.9-0.8-4.3-0.9c-1.4-2.4-1-4.5-0.5-6.8
	c0.2-1.1,0.4-2.2,0.5-3.4c0.2,0,0.4,0,0.7,0c1.5,0,2.8,0.7,4,1.4c1.1,0.6,2.1,1.1,3.1,1.1c0.8,0,1.5-0.3,2.2-1l0.6-0.6l-0.9,0
	c-2.1-0.1-3.7-1.3-4.6-3.5C5.6,11,6.3,5.6,9.7,2.4l0.1-0.1l0-0.1c0-0.1,0.4-1.5,13.1-1.5c13.5,0,28.9,1.5,30.5,2.6l0.4,0.2
	c0.8,0.8,2,3.6,2.1,8c0,2.4-0.4,6.5-3.6,6.6c-0.5-0.1-4.8,1.1-5.6,1.3c-17.2,2.3-24.2,0.2-34.2-1c6.9,2.8,20,5,29,2.7
	c2.1-0.5,3.9-1,5.4-1.4l4.4-0.7c0.4,0.1,0.5-0.1,0.9-0.1h0.1c2.9,0.4,9,1.7,10.3,2.5C65.7,23,66.6,24.4,66.4,25z M54.6,83.7
	c0,4.2-2.2,7.5-4.9,7.4c-12.5,1.9-24.2,2-37-0.8c-2.6-0.6-4.7-3.5-4.7-7.6L6.2,55.5c0-4.1,2.2-7.4,4.8-7.3
	c13.7,1.5,29.3,0.1,40.7-0.1c2.7,0.1,4.8,3.5,4.7,7.6L54.6,83.7z M62.9,20.7c-1.3-0.7-5.8-1.8-8.9-2.3c1.7-1,2.6-3.3,2.6-6.9
	c-0.1-3.7-1.1-7.8-2.6-8.5c0,0-0.1-0.1-0.1-0.1C52.5,1.3,34.1,0,22.9,0C10.3,0,9.2,1.3,9.1,1.9c-3.2,3.2-4.5,8.6-2.9,12.6
	c0.8,2.1,2.3,3.5,4.3,3.9c-0.3,0.2-0.6,0.3-1,0.3c-0.8,0-1.8-0.5-2.7-1C5.4,17,4,16.2,2.3,16.2c-0.4,0-0.7,0-1.1,0.1l-0.3,0.1v0.3
	c0,1.2-0.2,2.4-0.5,3.6c-0.5,2.4-1,4.9,0.7,7.5l0.1,0.2l0.2,0c0.9,0.1,1.8,0.3,2.8,0.5c-1.7,4-2.8,9.8-2.4,14.2L5.3,84
	c1.1,17.6,5.9,18.1,11.6,20.1c9.9,1.9,19.4,0.9,29.3-0.5c5.8-1.8,10.6-2.1,12.1-19.6l3.4-41.2c0.5-6.2-1.4-13-3.8-16.7
	c0.6-0.2,1.3-0.3,2-0.3c1,0,2.1,0.2,3.3,0.6l0.1,0c0.5,0.1,0.9,0.1,1.4,0.1c1.4,0,2.4-0.5,2.6-1.3C67.5,23.9,66,22.3,62.9,20.7z"/>
<path fill="#010101" d="M25,81.7c-3.9-2-6.9-5-8-9.4c0-0.1,0.1-0.2,0.1-0.3c0.9,0.1,1.8,0.2,2.7,0.4c2.4,0.6,4.5,1.8,6.6,3
	c2.4,1.3,4.8,2.8,6.8,4.7c0.6,0.6,1.2,1.3,1.7,2c0.2,0.2,0.2,0.5,0.4,0.8C31.7,83.8,28.3,83.4,25,81.7z M24.7,61.3
	c-3.6,1.4-5.3,3.9-5.1,7.6c-0.7-0.1-1.4-0.1-2-0.2C17.2,65.7,21.1,61.6,24.7,61.3z M42,68.6c-0.8-1.7-1.7-3.3-2.5-5.1
	c-0.8-1.8-1.2-3.7-1.2-5.6c0-0.5,0.1-1,0.2-1.7c-0.3,0.2-0.5,0.3-0.7,0.4c-0.5,0.3-1,0.7-1.6,1c-2,0.9-4.2,1.4-6.4,1.6
	c-1.8,0.1-3.6,0.1-5.3,0.4c-2.8,0.4-5.2,1.6-6.9,3.8c-2.3,3-2.6,6.3-1.6,9.8c1,3.7,3.4,6.5,6.6,8.5c3.9,2.4,8.1,3.5,12.6,2.3
	c3.8-1,6.6-3.3,7.8-7.2C43.9,73.9,43.4,71.2,42,68.6z"/>
</svg>
